HIERARCHY
ROOT root
{
	OFFSET 0.000000 0.000000 0.000000
	CHANNELS 6 Xposition Yposition Zposition Zrotation Yrotation Xrotation
	JOINT lhip
	{
		OFFSET 0.058581 -0.082280 -0.017664
		CHANNELS 3 Zrotation Yrotation Xrotation
		JOINT lknee
		{
			OFFSET 0.043451 -0.386469 0.008037
			CHANNELS 3 Zrotation Yrotation Xrotation
			JOINT lankle
			{
				OFFSET -0.014790 -0.426874 -0.037428
				CHANNELS 3 Zrotation Yrotation Xrotation
				JOINT ltoe
				{
					OFFSET 0.041054 -0.060286 0.122042
					CHANNELS 3 Zrotation Yrotation Xrotation
					End Site
					{
						OFFSET 0.000000 0.000000 0.000000
					}
				}
			}
		}
	}
	JOINT rhip
	{
		OFFSET -0.060310 -0.090513 -0.013543
		CHANNELS 3 Zrotation Yrotation Xrotation
		JOINT rknee
		{
			OFFSET -0.043257 -0.383688 -0.004843
			CHANNELS 3 Zrotation Yrotation Xrotation
			JOINT rankle
			{
				OFFSET 0.019056 -0.420046 -0.034562
				CHANNELS 3 Zrotation Yrotation Xrotation
				JOINT rtoe
				{
					OFFSET -0.034840 -0.062106 0.130323
					CHANNELS 3 Zrotation Yrotation Xrotation
					End Site
					{
						OFFSET 0.000000 0.000000 0.000000
					}
				}
			}
		}
	}
	JOINT lowerback
	{
		OFFSET 0.004439 0.124404 -0.038385
		CHANNELS 3 Zrotation Yrotation Xrotation
		JOINT upperback
		{
			OFFSET 0.004488 0.137956 0.026820
			CHANNELS 3 Zrotation Yrotation Xrotation
			JOINT chest
			{
				OFFSET -0.002265 0.056032 0.002855
				CHANNELS 3 Zrotation Yrotation Xrotation
				JOINT lowerneck
				{
					OFFSET -0.013390 0.211636 -0.033468
					CHANNELS 3 Zrotation Yrotation Xrotation
					JOINT upperneck
					{
						OFFSET 0.010113 0.088937 0.050410
						CHANNELS 3 Zrotation Yrotation Xrotation
						End Site
						{
							OFFSET 0.000000 0.000000 0.000000
						}
					}
				}
				JOINT lclavicle
				{
					OFFSET 0.071702 0.114000 -0.018898
					CHANNELS 3 Zrotation Yrotation Xrotation
					JOINT lshoulder
					{
						OFFSET 0.122921 0.045205 -0.019046
						CHANNELS 3 Zrotation Yrotation Xrotation
						JOINT lelbow
						{
							OFFSET 0.255332 -0.015649 -0.022946
							CHANNELS 3 Zrotation Yrotation Xrotation
							JOINT lwrist
							{
								OFFSET 0.265709 0.012698 -0.007375
								CHANNELS 3 Zrotation Yrotation Xrotation
								End Site
								{
									OFFSET 0.000000 0.000000 0.000000
								}
							}
						}
					}
				}
				JOINT rclavicle
				{
					OFFSET -0.082954 0.112472 -0.023707
					CHANNELS 3 Zrotation Yrotation Xrotation
					JOINT rshoulder
					{
						OFFSET -0.113228 0.046853 -0.008472
						CHANNELS 3 Zrotation Yrotation Xrotation
						JOINT relbow
						{
							OFFSET -0.260127 -0.014369 -0.031269
							CHANNELS 3 Zrotation Yrotation Xrotation
							JOINT rwrist
							{
								OFFSET -0.269108 0.006794 -0.006027
								CHANNELS 3 Zrotation Yrotation Xrotation
								End Site
								{
									OFFSET 0.000000 0.000000 0.000000
								}
							}
						}
					}
				}
			}
		}
	}
}
MOTION
Frames: 8
Frame Time: 0.033333
0.000887 -0.114441 0.551413 60.097495 17.960585 50.323977 35.003174 9.679602 -65.845038 -8.153972 9.249080 124.357055 1.178951 10.815245 -26.903574 0.000000 -0.000000 0.000000 -25.725501 -8.475324 -47.245774 12.612895 2.329423 105.560010 4.317892 1.414208 -11.253794 0.000000 -0.000000 0.000000 -5.117181 8.577895 54.686897 -4.161017 -1.970103 1.011715 -4.451137 -0.319025 -1.236119 5.760132 -7.737006 11.373603 15.572285 -9.253738 18.529020 -35.997232 -13.929837 4.690376 -19.853798 5.723184 -8.978732 0.619958 -13.594134 -25.314055 4.636995 -3.842149 -8.610163 28.451240 25.021574 4.983180 27.643098 23.112910 -2.330276 -50.965738 57.487989 -47.359279 -6.243863 19.447688 -2.879532 
0.014139 -0.089271 0.545354 63.485273 15.730638 52.806659 40.137647 8.072448 -61.321068 -10.055661 6.888256 135.151855 -1.749671 9.511025 -25.470559 0.000000 -0.000000 0.000000 -27.911975 -4.759774 -50.318352 10.416062 12.024769 86.262130 3.174163 -1.188999 -9.519823 0.000000 -0.000000 0.000000 -5.847069 7.322885 54.040390 -2.914358 -2.746815 3.263826 -3.789014 -2.333575 -2.551867 6.704806 -8.171414 10.171215 16.460462 -10.914868 15.178342 -38.862417 -11.588953 7.267697 -15.866776 5.021122 -8.636459 1.463185 -18.974713 -13.289291 -16.816737 -0.660856 -3.651553 36.119186 22.526274 8.965833 32.057139 21.426389 -1.291226 -36.222260 44.571005 -36.573466 -2.749757 15.725139 -3.303072 
0.022815 -0.064654 0.531448 66.437468 14.075769 55.485384 41.227837 7.226826 -55.207422 -13.215650 7.682848 135.238211 -5.059626 4.242830 -29.578731 0.000000 -0.000000 0.000000 -28.454388 -0.976664 -52.327086 7.949376 20.752913 66.237066 6.078646 -0.338838 -5.402148 0.000000 -0.000000 0.000000 -5.825774 5.452088 53.138129 -1.219798 -2.542285 4.971041 -2.808710 -2.746667 -2.372435 6.900925 -9.360202 8.091793 17.092080 -14.723529 11.261199 -37.496939 -8.786280 7.042398 -17.291532 1.268667 -5.367469 8.049298 -32.045240 -7.531128 -11.690845 -2.979327 0.210779 38.938205 19.917132 10.342403 34.445774 19.527349 -1.047298 -22.830207 29.692125 -31.502407 -2.937548 9.142002 -9.479946 
0.032901 -0.037121 0.512671 68.892185 12.310632 56.801054 37.123253 7.163285 -51.128581 -12.992721 10.932967 135.538235 -3.761239 5.635099 -43.142555 0.000000 -0.000000 0.000000 -27.691916 -0.675182 -55.756376 3.595813 16.700454 51.035055 10.160167 0.408894 -1.335064 0.000000 -0.000000 0.000000 -4.654697 2.662623 54.677156 0.112784 -1.220458 1.714341 -1.351353 -2.118217 0.182906 4.407252 -12.932964 7.556712 16.748572 -19.167023 9.804079 -33.903513 -7.000461 6.979227 -23.642180 -5.589344 -2.081676 22.490929 -44.531438 -15.456821 11.375838 -5.929542 -3.970369 38.227370 17.438373 11.211545 35.055672 16.766204 -1.452343 -9.177093 17.079689 -27.278493 -8.408796 2.329172 -18.103801 
0.045528 -0.010861 0.490281 68.859606 8.751138 55.384433 34.721129 7.422755 -50.374975 -8.838118 15.140138 139.799538 -3.010375 6.477202 -43.488960 0.000000 -0.000000 0.000000 -23.553820 -1.247403 -61.315083 4.027189 1.785661 48.758200 13.047508 3.738254 1.914146 0.000000 -0.000000 0.000000 -4.178612 1.331913 56.681061 1.597787 0.101824 1.195320 0.128704 -1.617682 0.646637 1.288028 -15.524299 8.198800 16.057017 -24.788536 8.680372 -29.990408 -6.709979 6.039175 -31.019443 -12.375816 0.426383 47.316106 -54.470749 -32.399292 25.138579 -7.058468 -3.417182 37.899637 15.752238 13.362466 37.009986 12.983546 -2.083615 -4.463887 13.152650 -22.342048 -12.949273 0.521855 -22.411798 
0.060038 0.013175 0.468604 69.659538 1.701782 52.812811 31.695762 6.335650 -49.055586 -7.880452 19.305323 143.169704 -1.815623 1.186465 -39.388729 0.000000 -0.000000 0.000000 -17.125158 -0.646356 -66.967466 3.998689 -9.362383 57.937405 12.559415 5.777963 4.172078 0.000000 -0.000000 0.000000 -6.635568 2.016712 57.002474 3.675062 -0.769870 4.040169 0.940984 -2.107546 0.518271 0.435930 -15.954602 9.177977 15.179102 -30.303849 7.306836 -27.654254 -7.592745 4.694689 -33.133659 -20.545415 1.422066 75.971281 -60.711206 -55.150463 22.671151 -9.124249 -1.331187 39.856926 13.148903 13.802081 38.023526 11.936438 -2.701927 -6.073429 14.279050 -23.080401 -13.875631 -0.051574 -28.398891 
0.073832 0.038434 0.453059 71.493972 -5.419305 51.225301 26.413857 7.079711 -46.423429 -7.779223 23.076319 145.035168 -0.677987 -3.512883 -38.506605 0.000000 -0.000000 0.000000 -9.965473 1.746539 -70.274800 2.555100 -17.655622 69.399407 10.465418 6.433556 5.338671 0.000000 -0.000000 0.000000 -8.894752 0.551535 57.397626 5.251228 -2.463073 2.320777 1.308543 -3.484618 1.777995 -1.332008 -16.305102 10.371335 11.646000 -33.551388 11.140207 -24.806437 -10.420316 3.682598 -35.929390 -28.826445 3.676345 98.547230 -64.066183 -73.473429 18.947753 -10.972278 1.233118 38.163170 12.210384 12.261688 41.110331 11.981881 -2.164930 -6.056049 13.896193 -22.318067 -13.429305 0.447160 -33.768875 
0.084843 0.066600 0.447037 72.868740 -11.317162 52.026443 21.244852 9.748178 -43.880131 -6.254560 26.594646 145.827811 1.631206 -5.658322 -39.788699 0.000000 -0.000000 0.000000 -5.118567 6.751669 -70.601553 0.935859 -27.319352 76.981440 9.730272 7.445904 8.621693 0.000000 -0.000000 0.000000 -9.793956 -3.877229 56.963321 7.478684 -4.025830 -1.104815 1.496483 -4.418469 2.442806 -3.788043 -15.729359 9.422310 6.418428 -34.375956 15.170178 -20.574256 -15.138003 2.868309 -42.576333 -34.692924 10.804606 110.008276 -66.583261 -83.396453 19.660479 -12.703304 -1.007947 33.759589 13.285663 10.291116 43.224396 12.625882 -0.175153 -6.914347 11.874354 -19.823009 -15.028183 1.319799 -33.741164 
